<svg width="18" height="18" viewBox="0 0 18 18" fill="none" xmlns="http://www.w3.org/2000/svg">
<g clip-path="url(#clip0_2085_67)">
<path d="M3.94943 7.32375C4.30034 6.26209 4.97758 5.33836 5.88452 4.68435C6.79146 4.03034 7.88178 3.67945 8.99993 3.68175C10.2674 3.68175 11.4134 4.13175 12.3134 4.86825L14.9324 2.25C13.3364 0.85875 11.2912 0 8.99993 0C5.45243 0 2.39843 2.0235 0.929932 4.9875L3.94943 7.32375Z" fill="white"/>
<path d="M12.03 13.5099C11.2125 14.0372 10.1745 14.3184 8.99998 14.3184C7.88629 14.3207 6.80009 13.9726 5.89516 13.3234C4.99024 12.6743 4.31244 11.7569 3.95773 10.7012L0.927734 13.0014C1.67117 14.5061 2.82169 15.7722 4.2486 16.6558C5.67552 17.5395 7.32164 18.0052 8.99998 18.0002C11.1997 18.0002 13.3012 17.2179 14.8755 15.7502L12.0307 13.5099H12.03Z" fill="white"/>
<path d="M14.8755 15.7498C16.5217 14.2138 17.5905 11.9278 17.5905 8.99978C17.5905 8.46728 17.5087 7.89503 17.3865 7.36328H9V10.841H13.827C13.5893 12.0103 12.9495 12.9155 12.0308 13.5095L14.8755 15.7498Z" fill="white"/>
<path d="M3.95784 10.7008C3.77435 10.1525 3.68114 9.57801 3.68184 8.9998C3.68184 8.4133 3.77559 7.85006 3.94959 7.32355L0.930087 4.9873C0.312371 6.23432 -0.00605996 7.60819 8.73409e-05 8.9998C8.73409e-05 10.4398 0.333837 11.7973 0.927837 13.0011L3.95784 10.7008Z" fill="white"/>
</g>
<defs>
<clipPath id="clip0_2085_67">
<rect width="18" height="18" fill="white"/>
</clipPath>
</defs>
</svg>
